<svg width="14" height="13" viewBox="0 0 14 13" fill="none" xmlns="http://www.w3.org/2000/svg">
<g clip-path="url(#clip0_1_345)">
<path d="M9.95694 0H3.7773C1.76608 0 0.129883 1.57858 0.129883 3.51898V9.4811C0.129883 11.4214 1.76608 13 3.7773 13H9.95705C11.9682 13 13.6044 11.4214 13.6044 9.4811V3.51898C13.6044 1.57858 11.9682 0 9.95694 0V0ZM12.8144 9.4811C12.8144 11.0012 11.5326 12.2379 9.95694 12.2379H3.7773C2.20165 12.2379 0.919814 11.0012 0.919814 9.4811V3.51898C0.919814 1.99881 2.20165 0.762114 3.7773 0.762114H9.95705C11.5326 0.762114 12.8144 1.99881 12.8144 3.51898V9.4811Z" fill="white"/>
<path d="M6.86719 2.94531C4.83561 2.94531 3.18286 4.53986 3.18286 6.49989C3.18286 8.45993 4.83561 10.0545 6.86719 10.0545C8.89876 10.0545 10.5515 8.45993 10.5515 6.49989C10.5515 4.53986 8.89876 2.94531 6.86719 2.94531ZM6.86719 9.29236C5.27129 9.29236 3.97279 8.03969 3.97279 6.49989C3.97279 4.96019 5.27129 3.70743 6.86719 3.70743C8.46319 3.70743 9.76158 4.96019 9.76158 6.49989C9.76158 8.03969 8.46319 9.29236 6.86719 9.29236Z" fill="white"/>
<path d="M10.6395 1.68311C10.0391 1.68311 9.55078 2.15432 9.55078 2.73344C9.55078 3.31266 10.0391 3.78388 10.6395 3.78388C11.2398 3.78388 11.7282 3.31266 11.7282 2.73344C11.7282 2.15422 11.2398 1.68311 10.6395 1.68311ZM10.6395 3.02166C10.4748 3.02166 10.3407 2.89233 10.3407 2.73344C10.3407 2.57445 10.4748 2.44522 10.6395 2.44522C10.8042 2.44522 10.9383 2.57445 10.9383 2.73344C10.9383 2.89233 10.8042 3.02166 10.6395 3.02166Z" fill="white"/>
</g>
<defs>
<clipPath id="clip0_1_345">
<rect width="13.4745" height="13" fill="white" transform="translate(0.129883)"/>
</clipPath>
</defs>
</svg>
