<svg width="13" height="11" viewBox="0 0 13 11" fill="none" xmlns="http://www.w3.org/2000/svg">
<g clip-path="url(#clip0_1_359)">
<path d="M12.1781 11V10.9996H12.181V6.96531C12.181 4.99173 11.7406 3.47144 9.34911 3.47144C8.19945 3.47144 7.42795 4.0801 7.11298 4.65714H7.07973V3.65569H4.81226V10.9996H7.17332V7.36314C7.17332 6.40569 7.36144 5.47985 8.59043 5.47985C9.80137 5.47985 9.81942 6.57252 9.81942 7.42456V11H12.1781Z" fill="white"/>
<path d="M0.967529 3.65601H3.33144V10.9999H0.967529V3.65601Z" fill="white"/>
<path d="M2.14867 0C1.39285 0 0.779541 0.591708 0.779541 1.32092C0.779541 2.05013 1.39285 2.65421 2.14867 2.65421C2.9045 2.65421 3.5178 2.05013 3.5178 1.32092C3.51733 0.591708 2.90402 0 2.14867 0V0Z" fill="white"/>
</g>
<defs>
<clipPath id="clip0_1_359">
<rect width="11.4015" height="11" fill="white" transform="translate(0.779541)"/>
</clipPath>
</defs>
</svg>
