<svg width="15" height="13" viewBox="0 0 15 13" fill="none" xmlns="http://www.w3.org/2000/svg">
<g clip-path="url(#clip0_1_352)">
<path d="M14.392 2.46919C13.8909 2.68125 13.357 2.82181 12.8003 2.89006C13.373 2.56019 13.8101 2.04181 14.0155 1.417C13.4816 1.72412 12.8921 1.94106 12.2639 2.06213C11.7569 1.54131 11.0343 1.21875 10.246 1.21875C8.71669 1.21875 7.48546 2.41638 7.48546 3.88456C7.48546 4.09581 7.50399 4.29894 7.54946 4.49231C5.2529 4.38425 3.22078 3.32231 1.85564 1.70463C1.61731 2.10356 1.47751 2.56019 1.47751 3.05175C1.47751 3.97475 1.97018 4.79294 2.70454 5.26662C2.26072 5.2585 1.82533 5.13419 1.45646 4.93837C1.45646 4.9465 1.45646 4.95706 1.45646 4.96762C1.45646 6.26275 2.41399 7.3385 3.66965 7.58631C3.44479 7.64563 3.19972 7.67406 2.94539 7.67406C2.76854 7.67406 2.59 7.66431 2.42241 7.62856C2.78033 8.684 3.79597 9.45994 5.00362 9.48512C4.06378 10.1944 2.87044 10.6218 1.57857 10.6218C1.35203 10.6218 1.13476 10.6121 0.91748 10.5852C2.14113 11.3466 3.59133 11.7812 5.15521 11.7812C10.2385 11.7812 13.0176 7.71875 13.0176 4.19737C13.0176 4.07956 13.0134 3.96581 13.0075 3.85287C13.5557 3.4775 14.0164 3.00869 14.392 2.46919Z" fill="white"/>
</g>
<defs>
<clipPath id="clip0_1_352">
<rect width="13.4745" height="13" fill="white" transform="translate(0.91748)"/>
</clipPath>
</defs>
</svg>
